<svg width="356.71" height="50.912" xmlns="http://www.w3.org/2000/svg" id="logo"><defs><path id="a" d="M253.895 245.921h198.296v178.221H253.895z"/></defs><path style="font-style:normal;font-variant:normal;font-weight:400;font-stretch:normal;font-size:40px;line-height:1.25;font-family:'Arial Black';white-space:pre;shape-inside:url(#a);display:inline;fill-opacity:1;stroke:none;stroke-width:1.77573" d="M318.902 4.14v38.553l-10.43 12.285c16.887 0 33.774.003 50.661.005v-12.52h-24.52V4.139Z" transform="translate(-2.423 -4.116)"/><path d="M259.854 4.123h14.67l19.145 28.128V4.123h14.81v50.845h-14.81l-19.04-27.92v27.92h-14.775z" style="font-size:40px;line-height:1.25;font-family:'Arial Black';white-space:pre;fill-opacity:1;stroke-width:1.77573" aria-label="N" transform="translate(-2.423 -4.116)"/><path style="font-size:40px;line-height:1.25;font-family:'Arial Black';stroke-width:1.77627" d="M206.618 4.116v50.86h15.893v-12.42l7.986-8.361h.201l10.651 20.78h19.359l-19.359-31.674 18.526-19.185h-53.08Zm15.893 10.928h7.108l-7.108 8.292z" transform="translate(-2.423 -4.116)"/><path style="font-size:71.051px;line-height:1.25;font-family:'Arial Black';stroke-width:1.77627" d="M153.473 4.118h15.715v19.22l16.48-19.22h20.885l-18.526 19.185 18.651 31.675h-18.077l-11.294-20.92-8.119 8.5v12.42h-15.715z" aria-label="K" transform="translate(-2.423 -4.116)"/><path style="font-size:68.563px;line-height:1.25;font-family:'Arial Black';fill-opacity:1;stroke-width:1.71408" d="M108.158 37.05h14.43c.312 2.344.948 4.13 1.908 5.357 1.562 1.986 3.794 2.98 6.695 2.98 2.165 0 3.828-.503 4.988-1.507 1.183-1.027 1.775-2.21 1.775-3.549 0-1.272-.558-2.41-1.674-3.415-1.116-1.004-3.705-1.953-7.767-2.845-6.651-1.496-11.394-3.482-14.228-5.96-2.857-2.477-4.285-5.635-4.285-9.474 0-2.522.725-4.899 2.176-7.13 1.473-2.255 3.671-4.018 6.595-5.29 2.946-1.295 6.974-1.942 12.085-1.942 6.272 0 11.048 1.172 14.33 3.515 3.302 2.322 5.266 6.864 5.891 11.952h-14.295c-.38-2.21-1.183-3.816-2.41-4.82-1.206-1.005-2.88-1.507-5.022-1.507-1.763 0-3.091.38-3.984 1.138-.893.736-1.34 1.64-1.34 2.712 0 .78.37 1.484 1.106 2.109.714.647 2.41 1.25 5.088 1.808 6.629 1.428 11.372 2.879 14.229 4.352 2.879 1.45 4.965 3.258 6.26 5.423 1.317 2.165 1.975 4.587 1.975 7.265 0 3.147-.87 6.048-2.611 8.704-1.741 2.656-4.174 4.676-7.298 6.06-3.125 1.361-7.064 2.042-11.818 2.042-8.347 0-14.128-1.607-17.342-4.82-3.214-3.215-5.033-8.203-5.457-13.158zM82.416 4.275c-3.83 0-7.253.522-10.274 1.554v14.048H58.457c-.92 2.905-1.384 6.172-1.384 9.808 0 5.736 1.127 10.512 3.381 14.329 2.254 3.816 5.19 6.606 8.805 8.37 3.638 1.763 8.225 2.644 13.76 2.644 5.445 0 9.987-1.016 13.625-3.047 3.66-2.053 6.45-4.91 8.37-8.57 1.941-3.683 2.912-8.392 2.912-14.128 0-7.9-2.21-14.038-6.628-18.413-4.42-4.397-10.713-6.595-18.882-6.595Zm-.033 11.483c3.191 0 5.713 1.071 7.566 3.214 1.874 2.12 2.812 5.49 2.812 10.11 0 5.49-.893 9.296-2.679 11.416-1.785 2.12-4.307 3.181-7.566 3.181-3.169 0-5.68-1.082-7.532-3.247-1.83-2.165-2.746-5.725-2.746-10.68 0-5 .927-8.582 2.78-10.746 1.852-2.165 4.307-3.248 7.365-3.248z" transform="translate(-2.423 -4.116)"/><path style="font-size:68.563px;line-height:1.25;font-family:'Arial Black';fill-opacity:1;stroke-width:1.45383" d="M2.423 5.112v49.079h14.261v-26.95l18.38 26.95h14.295v-36.96h20.137V5.112H25.749v12.119h9.315v15.032l-18.48-27.15Z" transform="translate(-2.423 -4.116)"/></svg>
