<svg height="50" width="50" viewBox="0 0 32 32" xml:space="preserve" xmlns="http://www.w3.org/2000/svg" id="logo"><path d="M222.75 0a51.174 51.174 0 0 0-36.15 14.975L68.8 132.8a51.095 51.095 0 0 0-14.975 36.15v296.5c0 25.67 20.878 46.55 46.55 46.55h311.25c25.664 0 46.55-20.88 46.55-46.55V46.55C458.176 20.886 437.288 0 411.625 0H222.75zm6.775 26.175h182.1c11.23 0 20.375 9.144 20.375 20.375v418.9c0 11.237-9.145 20.375-20.375 20.375h-311.25C89.13 485.825 80 476.687 80 465.45V176h124.55c13.77 0 24.975-11.197 24.975-24.975V26.175zM206.25 32.35V137c0 11.313-4.412 15.725-15.725 15.725H85.875L206.25 32.35zM194.875 367.6c-8.084 0-14.153 1.848-18.05 5.7-3.902 3.812-5.75 9.774-5.75 17.775v3.975h-10.15a.946.946 0 0 0-.95.95v9.025a.946.946 0 0 0 .95.925h10.15v60.625a.946.946 0 0 0 .95.95h11.625a.946.946 0 0 0 .95-.95V405.95h18.15a.946.946 0 0 0 .95-.925V396a.946.946 0 0 0-.95-.925H184.6v-5.325c0-4.255.836-7.017 2.15-8.4 1.36-1.376 3.986-2.225 8-2.225h19.8v87.45a.946.946 0 0 0 .95.95h11.625a.946.946 0 0 0 .95-.95V368.55a.946.946 0 0 0-.95-.95h-32.25zm81.275 25.775c-3.85 0-7.774.397-11.825 1.25-4.047.81-8.21 2.018-12.5 3.675a.946.946 0 0 0-.6.9v10.75a.946.946 0 0 0 1.425.825c3.465-1.897 7.035-3.355 10.775-4.3 3.745-.947 7.592-1.4 11.55-1.4 6.197 0 10.828 1.44 14.1 4.2a.946.946 0 0 0 .05 0c3.31 2.72 4.95 6.476 4.95 11.6v.2h-15.35c-10.665 0-18.802 2.038-24.375 6.25-5.53 4.214-8.3 10.573-8.3 18.725 0 7.002 2.192 12.718 6.625 16.975a.946.946 0 0 0 0 .05c4.478 4.214 10.523 6.275 17.925 6.275 5.827 0 10.814-1.026 14.925-3.125a.946.946 0 0 0 0-.025c3.286-1.713 6.138-4.182 8.55-7.35v7.725a.946.946 0 0 0 .95.95h11.55a.946.946 0 0 0 .95-.95v-40.25c0-10.9-2.513-19.225-7.775-24.75-5.262-5.525-13.229-8.2-23.6-8.2zm84.775 0c-11.195 0-20.142 3.383-26.675 10.175a.946.946 0 0 0-.05 0c-6.49 6.794-9.675 16.117-9.675 27.8 0 11.516 3.158 20.825 9.6 27.7 6.442 6.874 15.222 10.3 26.05 10.3 3.968 0 7.707-.353 11.225-1.125 3.561-.772 6.982-1.986 10.275-3.525a.946.946 0 0 0 .525-.85v-10.7a.946.946 0 0 0-1.4-.825c-3.22 1.775-6.409 3.122-9.65 4.025a37.303 37.303 0 0 1-9.725 1.3c-7.321 0-12.854-2.267-16.825-6.8-3.973-4.575-5.975-11.039-5.975-19.5s2.004-14.893 5.975-19.425c3.973-4.575 9.507-6.875 16.825-6.875 3.27 0 6.501.473 9.7 1.375a.946.946 0 0 0 .025 0c3.24.861 6.435 2.178 9.65 3.95a.946.946 0 0 0 1.4-.825V398.7a.946.946 0 0 0-.525-.875c-3.26-1.501-6.633-2.572-10.1-3.3a48.887 48.887 0 0 0-10.65-1.15zM283.45 432.05h10.625v1.65c0 7.399-1.885 13.191-5.625 17.575-3.695 4.338-8.544 6.475-14.75 6.475-4.5 0-7.945-1.132-10.475-3.35-2.494-2.26-3.7-5.188-3.7-9.1 0-4.945 1.625-8.178 4.95-10.15 3.304-1.96 9.678-3.1 18.975-3.1zm-152.725 17.575a.946.946 0 0 0-.925.95v16a.946.946 0 0 0 .925.95H144a.946.946 0 0 0 .95-.95v-16a.946.946 0 0 0-.95-.95h-13.275z" transform="matrix(.05 0 0 .05 3.2 3.2)" fill="var(--icon-flacfile-current-accent)" style="transition: fill 0.25s;" /></svg>
