<svg xmlns="http://www.w3.org/2000/svg" width="50" height="22" id="logo"><path d="M49.15 15.466a6.88 6.88 0 0 1-6.966 6.495H25.44a1.404 1.404 0 0 1-1.39-1.396V2.536a1.536 1.536 0 0 1 .925-1.468S26.515 0 29.759 0a10.973 10.973 0 0 1 5.63 1.547 11.14 11.14 0 0 1 5.242 7.26 6.465 6.465 0 0 1 1.776-.242 6.703 6.703 0 0 1 6.744 6.901zM21.96 3.676c.505 6.115.872 11.692 0 17.787a.544.544 0 0 1-1.081 0c-.813-6.043-.459-11.725 0-17.787a.542.542 0 0 1 .83-.52c.176.11.274.313.251.52zm-3.388 17.793a.569.569 0 0 1-1.127 0 67.976 67.976 0 0 1 0-15.695.57.57 0 0 1 1.134 0c.673 5.21.67 10.485-.007 15.695zM15.177 5.243c.55 5.603.8 10.623-.006 16.213a.545.545 0 0 1-1.088 0c-.78-5.518-.518-10.682 0-16.213.03-.28.266-.49.547-.49s.517.21.547.49zm-3.4 16.233a.559.559 0 0 1-1.108 0 57.407 57.407 0 0 1 0-14.654.563.563 0 1 1 1.127 0 53.55 53.55 0 0 1-.02 14.654zm-3.396-10.99c.859 3.8.472 7.156-.032 11.029a.532.532 0 0 1-1.049 0c-.459-3.82-.839-7.255-.033-11.03a.558.558 0 0 1 1.114.001zm-3.388-.577c.787 3.893.531 7.189-.02 11.095-.065.577-1.054.583-1.107 0-.498-3.847-.734-7.242-.02-11.095a.578.578 0 0 1 1.147 0zm-3.42 1.887c.825 2.582.543 4.68-.033 7.327a.537.537 0 0 1-1.069 0c-.498-2.595-.7-4.738-.045-7.327a.575.575 0 0 1 1.146 0z" fill-rule="evenodd" fill="var(--icon-soundcloud-current-accent)" style="transition: fill 0.25s;"/></svg>
