<svg width="50" height="50" xmlns="http://www.w3.org/2000/svg" id="logo"><path d="M 23.007498,0.09166126 C 21.82656,0.21537296 21.303056,0.290393 19.960735,0.53004476 19.476427,0.61648434 18.012076,1.0020525 17.326555,1.2239405 16.877792,1.3689052 16.137841,1.63663 15.834911,1.7635138 15.730178,1.8074473 15.444544,1.9249734 15.200168,2.0252116 10.371684,3.9998406 5.9557825,7.9495744 3.2175046,12.741975 2.9099719,13.28028 2.1194005,14.896145 1.9296126,15.374814 1.8674076,15.531833 1.7669599,15.774498 1.7066594,15.91407 1.325814,16.794326 0.65092436,19.148496 0.44257022,20.323282 a 68.593419,68.558484 0 0 1 -0.12790056,0.697861 c -0.0620461,0.323712 -0.1593203,1.164158 -0.25294478,2.183987 -0.08156437,0.888821 -0.08188174,2.908176 -4.7605e-4,3.702786 0.12996347,1.269155 0.20406962,1.840608 0.32657487,2.519278 0.11663389,0.645521 0.43416369,2.02903 0.56777693,2.474234 0.18328177,0.610786 0.71186337,2.166858 0.75423247,2.220466 0.027453,0.03489 0.07125,0.134814 0.097115,0.222047 0.044908,0.151467 0.091086,0.26138 0.4125825,0.983349 2.8741128,6.452041 9.3211894,12.064111 15.7098694,13.675852 0.104733,0.02633 0.533184,0.138145 0.952114,0.248216 3.756563,0.987474 8.599487,0.998417 12.202919,0.02776 0.18344,-0.04917 0.497638,-0.133545 0.698216,-0.186995 5.446882,-1.45044 10.75539,-5.285503 13.960045,-10.085199 0.825006,-1.235531 2.241909,-3.831891 2.241909,-4.10818 0,-0.04695 0.02428,-0.112451 0.05395,-0.145599 0.120919,-0.134814 0.837702,-2.148301 1.054783,-2.962737 0.05348,-0.200635 0.138057,-0.515465 0.188201,-0.700081 0.966396,-3.566703 0.957668,-8.377185 -0.0219,-12.162763 C 49.155698,18.52629 49.052552,18.126606 49.030178,18.039373 47.737525,12.984165 43.738808,7.4758221 39.098049,4.3581287 38.556613,3.9939722 37.578793,3.3842956 37.536583,3.3842956 c -0.01523,0 -0.137105,-0.068993 -0.270718,-0.1533708 C 37.002453,3.0648657 35.815168,2.460423 35.353234,2.257409 35.196135,2.1882573 34.881938,2.0531261 34.655018,1.956853 34.428097,1.8607385 34.148811,1.7411505 34.034874,1.6913487 33.812239,1.5941239 32.399461,1.1184683 32.084312,1.034725 28.75731,0.1498692 25.594707,-0.17875982 23.007498,0.09166126 M 24.721302,13.34848 c 1.310742,0.09421 3.312243,0.304838 4.125824,0.434259 0.209465,0.03331 0.589517,0.0912 0.844525,0.128788 4.051242,0.596353 8.55093,2.071536 11.913794,3.905958 1.553532,0.847584 2.075131,1.929427 1.558292,3.233951 -0.466535,1.178116 -2.06196,1.801433 -3.145148,1.228552 -0.921328,-0.487233 -2.702573,-1.377006 -2.951551,-1.474389 -0.157099,-0.06154 -0.371324,-0.149089 -0.476057,-0.194291 -0.983215,-0.425695 -3.106111,-1.107061 -4.443195,-1.426333 -0.174554,-0.04155 -0.47447,-0.114671 -0.66648,-0.162094 -0.395127,-0.09786 -1.690953,-0.343537 -2.824602,-0.535449 C 23.142698,17.553567 16.161803,17.812886 11.359978,19.129781 10.559885,19.348973 10.373271,19.37879 9.9318078,19.35722 7.6735537,19.247149 6.9158301,16.331835 8.8210089,15.083457 9.7563016,14.47045 14.242184,13.619218 17.92956,13.354824 c 1.127778,-0.08089 5.694907,-0.08501 6.791742,-0.0063 m -1.87249,8.559104 c 3.367149,0.175417 6.624646,0.778908 9.718697,1.800481 3.506951,1.157974 6.638452,2.786686 7.057382,3.670431 0.898477,1.896279 -1.22537,3.59208 -3.002331,2.396994 -0.542705,-0.365108 -2.339025,-1.254564 -3.332397,-1.650283 -3.941908,-1.570187 -8.126605,-2.347826 -12.620421,-2.344971 -2.942506,0.0019 -5.513212,0.348931 -8.484599,1.144809 -0.801838,0.21491 -1.075254,0.215068 -1.559879,7.93e-4 -1.6757198,-0.740684 -1.563053,-3.052665 0.178045,-3.643151 3.064218,-1.039812 7.894924,-1.591122 12.045503,-1.375103 m 0.77502,8.186225 c 0.359265,0.03505 0.953066,0.09374 1.31963,0.130373 2.822222,0.281524 6.041159,1.188109 8.664231,2.439976 0.888639,0.424267 2.363621,1.24695 2.555472,1.425539 1.168878,1.088346 0.231205,2.99763 -1.328515,2.705004 -0.11711,-0.02189 -0.5554,-0.233466 -0.973854,-0.469946 -3.240359,-1.83125 -6.325523,-2.753378 -10.345504,-3.092475 -1.68905,-0.142427 -4.976856,-0.07867 -6.33695,0.12276 -0.110445,0.01634 -0.429403,0.06186 -0.708689,0.100873 -0.893876,0.125297 -2.144636,0.327043 -2.602443,0.419826 -0.244376,0.04964 -0.729478,0.15004 -1.07811,0.223157 -1.457527,0.306107 -2.283009,-0.212847 -2.285072,-1.436007 -0.0017,-0.951153 0.414169,-1.341638 1.744589,-1.638863 3.575186,-0.798892 8.552834,-1.205872 11.375215,-0.930217" fill="var(--icon-spotify-current-accent)" fill-rule="evenodd" style="transition: fill 0.25s;"/></svg>
