<svg viewBox="0 0 28.57 20" xmlns="http://www.w3.org/2000/svg" id="logo"><path d="M14.285 0S5.35 0 3.123.598A3.578 3.578 0 0 0 .598 3.123C0 5.35 0 10 0 10s0 4.65.598 6.877a3.578 3.578 0 0 0 2.525 2.525C5.35 20 14.285 20 14.285 20s8.935 0 11.162-.598a3.578 3.578 0 0 0 2.526-2.525C28.57 14.65 28.57 10 28.57 10s-.002-4.65-.597-6.877A3.578 3.578 0 0 0 25.447.598C23.22 0 14.285 0 14.285 0zm-2.86 5.715L18.849 10l-7.422 4.285v-8.57z" fill="var(--icon-yt-current-accent)" style="transition: fill 0.25s;"/><path d="M11.425 14.285 18.848 10l-7.423-4.285v8.57Z" fill="var(--icon-yt-current-fill)" style="transition: fill 0.25s;"/></svg>
