<?xml version="1.0" encoding="UTF-8" standalone="no"?>
<svg
   width="512"
   height="512"
   version="1.1"
   id="svg277"
   sodipodi:docname="github.svg"
   inkscape:version="1.2.2 (1:1.2.2+202212051552+b0a8486541)"
   xmlns:inkscape="http://www.inkscape.org/namespaces/inkscape"
   xmlns:sodipodi="http://sodipodi.sourceforge.net/DTD/sodipodi-0.dtd"
   xmlns="http://www.w3.org/2000/svg"
   xmlns:svg="http://www.w3.org/2000/svg">
  <defs
     id="defs281" />
  <sodipodi:namedview
     id="namedview279"
     pagecolor="#505050"
     bordercolor="#ffffff"
     borderopacity="1"
     inkscape:showpageshadow="0"
     inkscape:pageopacity="0"
     inkscape:pagecheckerboard="1"
     inkscape:deskcolor="#505050"
     showgrid="false"
     inkscape:zoom="1.0716146"
     inkscape:cx="-79.786148"
     inkscape:cy="183.83475"
     inkscape:window-width="1920"
     inkscape:window-height="995"
     inkscape:window-x="1920"
     inkscape:window-y="0"
     inkscape:window-maximized="1"
     inkscape:current-layer="svg277" />
  <path
     fill-rule="evenodd"
     clip-rule="evenodd"
     d="m 256.19878,19.770923 c -132.95212,0 -240.430977,108.271207 -240.430977,242.217447 0,107.07039 68.865409,197.70323 164.399987,229.78103 11.94428,2.4115 16.31942,-5.21178 16.31942,-11.62439 0,-5.61533 -0.39371,-24.863 -0.39371,-44.91778 -66.88208,14.43944 -80.80969,-28.87396 -80.80969,-28.87396 -10.74838,-28.07178 -26.674092,-35.28658 -26.674092,-35.28658 -21.890469,-14.83807 1.59454,-14.83807 1.59454,-14.83807 24.282282,1.60438 37.023832,24.863 37.023832,24.863 21.49183,36.89096 56.12385,26.46739 70.05639,20.04986 1.98825,-15.64027 8.36149,-26.46739 15.12844,-32.48136 -53.34326,-5.61534 -109.46711,-26.46739 -109.46711,-119.5068 0,-26.46739 9.54755,-48.12164 24.67599,-64.96273 -2.38689,-6.01397 -10.74838,-30.8819 2.39181,-64.16545 0,0 20.30085,-6.41753 66.07496,24.863 a 231.15903,231.15903 0 0 1 60.11021,-8.02191 c 20.30085,0 40.99542,2.81013 60.10528,8.02191 45.77904,-31.28053 66.07989,-24.863 66.07989,-24.863 13.14019,33.28355 4.77378,58.15148 2.38689,64.16545 15.52707,16.84109 24.68091,38.49534 24.68091,64.96273 0,93.03941 -56.12385,113.48791 -109.86574,119.5068 8.76012,7.61836 16.31942,22.05288 16.31942,44.91287 0,32.48136 -0.39371,58.55011 -0.39371,66.5671 0,6.41753 4.38006,14.04081 16.31942,11.63424 C 427.36572,459.68668 496.23112,369.05876 496.23112,261.98837 496.62484,128.04213 388.75227,19.770923 256.19878,19.770923 Z"
     fill="#24292f"
     id="path275"
     style="stroke-width:4.92142;fill:#bb64ee;fill-opacity:1" />
</svg>
