<?xml version="1.0" encoding="UTF-8" standalone="no"?>
<svg
   id="Layer_1"
   data-name="Layer 1"
   viewBox="0 0 724.44 738.28"
   version="1.1"
   sodipodi:docname="postlit.svg"
   inkscape:version="1.2.2 (1:1.2.2+202212051552+b0a8486541)"
   xmlns:inkscape="http://www.inkscape.org/namespaces/inkscape"
   xmlns:sodipodi="http://sodipodi.sourceforge.net/DTD/sodipodi-0.dtd"
   xmlns="http://www.w3.org/2000/svg"
   xmlns:svg="http://www.w3.org/2000/svg">
  <sodipodi:namedview
     id="namedview11"
     pagecolor="#505050"
     bordercolor="#ffffff"
     borderopacity="1"
     inkscape:showpageshadow="0"
     inkscape:pageopacity="0"
     inkscape:pagecheckerboard="1"
     inkscape:deskcolor="#505050"
     showgrid="false"
     inkscape:zoom="1.1147532"
     inkscape:cx="325.1841"
     inkscape:cy="368.69148"
     inkscape:window-width="1920"
     inkscape:window-height="995"
     inkscape:window-x="0"
     inkscape:window-y="0"
     inkscape:window-maximized="1"
     inkscape:current-layer="Layer_1" />
  <defs
     id="defs4">
    <style
       id="style2">
      .cls-1 {
        fill: #85ffc4;
      }

      .cls-2 {
        fill: #54ce93;
        opacity: .4;
      }
    </style>
  </defs>
  <path
     class="cls-1"
     d="m724.4,376.08c0-14.7-.88-29.18-2.57-43.43-2.36-19.86-30.64-18.37-38.41.05-24.95,59.15-69.82,84.57-116.14,64.69-59.92-25.74-19.54-126.07-16.55-173.96,4.37-70.5.95-149.87-96.66-220.12-14.88-10.72-33.73,6.64-29.27,24.43,21.1,84.28-24.27,135.14-71.44,138.81-51.29,4.01-99.05-34.36-103.6-100.45-1.19-17.25-20.74-28.24-30.55-14.01-34.11,49.49-31.86,112.31-15,156.17,22.2,57.71-.9,105.65-55.03,110.96-43.73,4.3-73.4-31.43-74.82-94.12-.45-20.02-25.98-31.1-35.08-13.26C14.16,261.13,0,316.95,0,376.05c0,200.06,162.16,362.22,362.22,362.22s362.22-162.16,362.22-362.22l-.04.02Z"
     id="path6"
     style="fill:#bb64ee;fill-opacity:1" />
  <path
     class="cls-2"
     d="m611.61,553.96c-4.3-19.14-41.25-15.24-56.85-3.38-18.1,13.78-40.89,17.36-56.74,11.01-44.88-17.97-32.83-48.82-44.38-112.74-9.41-52.08-40.62-91.19-87.36-114.45-13.71-6.82-27.29,7-23.96,21.95,24.14,108.46-40.48,150.16-75.93,158.22-32.2,7.32-64.53,2.81-78.2-44.11-4.53-15.51-24-22.61-33.46-9.5-30.35,42.04-48.23,93.67-48.23,149.46,0,5.52.25,10.97.63,16.39.32,4.41,2.27,8.56,5.47,11.62,64.96,61.83,152.82,99.84,249.59,99.84s184.63-38.01,249.59-99.84c3.2-3.06,5.16-7.18,5.47-11.62.38-5.43.63-10.88.63-16.39,0-19.41-2.16-38.3-6.26-56.47h-.02Z"
     id="path8"
     style="fill:#9a19e6;fill-opacity:1" />
</svg>
