<?xml version="1.0" encoding="UTF-8" standalone="no"?>
<svg
   viewBox="409.289 277.787 512 511.99999"
   width="512"
   height="512"
   version="1.1"
   id="svg27"
   sodipodi:docname="youtube.svg"
   inkscape:version="1.2.2 (1:1.2.2+202212051552+b0a8486541)"
   xmlns:inkscape="http://www.inkscape.org/namespaces/inkscape"
   xmlns:sodipodi="http://sodipodi.sourceforge.net/DTD/sodipodi-0.dtd"
   xmlns="http://www.w3.org/2000/svg"
   xmlns:svg="http://www.w3.org/2000/svg">
  <defs
     id="defs31" />
  <sodipodi:namedview
     id="namedview29"
     pagecolor="#505050"
     bordercolor="#ffffff"
     borderopacity="1"
     inkscape:showpageshadow="0"
     inkscape:pageopacity="0"
     inkscape:pagecheckerboard="1"
     inkscape:deskcolor="#505050"
     showgrid="false"
     inkscape:zoom="0.94395993"
     inkscape:cx="74.685373"
     inkscape:cy="150.43011"
     inkscape:window-width="1920"
     inkscape:window-height="995"
     inkscape:window-x="1920"
     inkscape:window-y="0"
     inkscape:window-maximized="1"
     inkscape:current-layer="svg27" />
  <path
     id="path2"
     style="stroke-width:15.3079;fill:#bb64ee;fill-opacity:1"
     class="style-scope yt-icon"
     d="M 665.289 380.70887 C 665.289 380.70887 528.51931 380.70704 494.42572 389.85145 C 475.59701 394.89169 460.79994 409.6886 455.7597 428.51747 C 446.61529 462.6109 446.61517 533.787 446.61517 533.787 C 446.61517 533.787 446.61529 604.96279 455.7597 639.05653 C 460.79994 657.88523 475.59701 672.68124 494.42572 677.72059 C 528.51931 686.86553 665.289 686.86513 665.289 686.86513 C 665.289 686.86513 802.06008 686.86553 836.15228 677.72059 C 854.98099 672.68124 869.77894 657.88523 874.8183 639.05653 C 883.96324 604.96279 883.96283 533.787 883.96283 533.787 C 883.96283 533.787 883.92654 462.6109 874.8183 428.51747 C 869.77894 409.6886 854.98099 394.89169 836.15228 389.85145 C 802.06008 380.70704 665.289 380.70887 665.289 380.70887 z M 621.51166 468.19716 L 735.13275 533.79286 L 621.51166 599.38661 L 621.51166 468.19716 z " />
</svg>
